<svg width="44" height="32" viewBox="0 0 44 32" fill="none" xmlns="http://www.w3.org/2000/svg">
<path d="M6.21429 30V31.5H9.21429V30H6.21429ZM20.5 30V31.5H23.5V30H20.5ZM9.21429 30V28.5997H6.21429V30H9.21429ZM20.5 28.599V30H23.5V28.599H20.5ZM14.8571 23.1C18.0026 23.1 20.5 25.5902 20.5 28.599H23.5C23.5 23.8759 19.6015 20.1 14.8571 20.1V23.1ZM9.21429 28.5997C9.21429 25.5906 11.7119 23.1 14.8571 23.1V20.1C10.1126 20.1 6.21429 23.8767 6.21429 28.5997H9.21429ZM14.8571 6.1C11.6905 6.1 9.07143 8.62355 9.07143 11.8H12.0714C12.0714 10.3373 13.2899 9.1 14.8571 9.1V6.1ZM20.6429 11.8C20.6429 8.62355 18.0238 6.1 14.8571 6.1V9.1C16.4244 9.1 17.6429 10.3373 17.6429 11.8H20.6429ZM14.8571 17.5C18.0238 17.5 20.6429 14.9764 20.6429 11.8H17.6429C17.6429 13.2627 16.4244 14.5 14.8571 14.5V17.5ZM14.8571 14.5C13.2899 14.5 12.0714 13.2627 12.0714 11.8H9.07143C9.07143 14.9764 11.6905 17.5 14.8571 17.5V14.5ZM4.85714 3.5H39.1429V0.5H4.85714V3.5ZM40.5 4.8V27.2H43.5V4.8H40.5ZM39.1429 28.5H4.85714V31.5H39.1429V28.5ZM3.5 27.2V4.8H0.5V27.2H3.5ZM4.85714 28.5C4.0789 28.5 3.5 27.8895 3.5 27.2H0.5C0.5 29.6033 2.47947 31.5 4.85714 31.5V28.5ZM40.5 27.2C40.5 27.8895 39.9211 28.5 39.1429 28.5V31.5C41.5205 31.5 43.5 29.6032 43.5 27.2H40.5ZM39.1429 3.5C39.9211 3.5 40.5 4.11045 40.5 4.8H43.5C43.5 2.39675 41.5205 0.5 39.1429 0.5V3.5ZM4.85714 0.5C2.47947 0.5 0.5 2.39675 0.5 4.8H3.5C3.5 4.11045 4.0789 3.5 4.85714 3.5V0.5ZM26.2857 11.9H34.8571V8.9H26.2857V11.9ZM26.2857 20.3H34.8571V17.3H26.2857V20.3Z" fill="#00D7B5"/>
</svg>
